# xmcd
#
# Track frame offsets:
# 150
# 20811
# 51915
# 65739
# 82571
# 96827
# 113920
# 130071
# 151118
# 171758
#
# Disc length: 2562 seconds
#
#
# Revision: 0
# Processed by: cddbd v1.5.2PL0 Copyright (c) Steve Scherf et al.
# Submitted via: FreeRIP 2.944 
#
DISCID=790a000a
DTITLE=hollow bone - black water
DYEAR=2005
DGENRE=Blues
TTITLE0=hollow bone - fly boy fly
TTITLE1=hollow bone - down where the waters cold
TTITLE2=hollow bone - black ghost
TTITLE3=hollow bone - immigrants son
TTITLE4=hollow bone - little girls
TTITLE5=hollow bone - you aint my woman
TTITLE6=hollow bone - smooth talk
TTITLE7=hollow bone - jailhouse blues
TTITLE8=hollow bone - snakes
TTITLE9=hollow bone - bad jake
EXTD=
EXTT0=
EXTT1=
EXTT2=
EXTT3=
EXTT4=
EXTT5=
EXTT6=
EXTT7=
EXTT8=
EXTT9=
PLAYORDER=
